<?xml version="1.0" encoding="utf-8" ?><svg xmlns="http://www.w3.org/2000/svg" xmlns:xlink="http://www.w3.org/1999/xlink" width="512" height="512" viewBox="0 0 512 512"><metadata><c2pa:manifest xmlns:c2pa="http://c2pa.org/manifest">AAAlEWp1bWIAAAAeanVtZGMycGEAEQAQgAAAqgA4m3EDYzJwYQAAAA6FanVtYgAAAEdqdW1kYzJtYQARABCAAACqADibcQN1cm46YzJwYTozMTRmYzk2ZS0xM2Q4LTQ2N2EtYTM0Ny0zNjhiZGE3NDgyMzAAAAADtWp1bWIAAAApanVtZGMyYXMAEQAQgAAAqgA4m3EDYzJwYS5hc3NlcnRpb25zAAAAAMlqdW1iAAAARGp1bWRjYm9yABEAEIAAAKoAOJtxE2MycGEuaW5ncmVkaWVudC52MwAAAAAYYzJzaHRh1Vq4z7nTBFIwBaGtzEIAAAB9Y2JvcqRscmVsYXRpb25zaGlwaHBhcmVudE9maGRjOnRpdGxlZnNvdXJjZWlkYzpmb3JtYXRqaW1hZ2Uvd2VicGppbnN0YW5jZUlEeCx4bXA6aWlkOmRmMGM5YzU5LTllODktNGY4MC05Y2JjLTNlOTljODQyODdjYQAAAfdqdW1iAAAAQWp1bWRjYm9yABEAEIAAAKoAOJtxE2MycGEuYWN0aW9ucy52MgAAAAAYYzJzaGe/Zqc6V004Ksuweh2wF4cAAAGuY2JvcqFnYWN0aW9uc4KiZmFjdGlvbmtjMnBhLm9wZW5lZGpwYXJhbWV0ZXJzv2tpbmdyZWRpZW50c4GiY3VybHgtc2VsZiNqdW1iZj1jMnBhLmFzc2VydGlvbnMvYzJwYS5pbmdyZWRpZW50LnYzZGhhc2hYILObScj9796wQZlCA87I+ZXdU/RO3fTR2C46Re43XyKQ/6RmYWN0aW9ua2MycGEuZWRpdGVkanBhcmFtZXRlcnO/a2luZ3JlZGllbnRzgaJjdXJseC1zZWxmI2p1bWJmPWMycGEuYXNzZXJ0aW9ucy9jMnBhLmluZ3JlZGllbnQudjNkaGFzaFggs5tJyP3v3rBBmUIDzsj5ld1T9E7d9NHYLjpF7jdfIpD/cWRpZ2l0YWxTb3VyY2VUeXBleFNodHRwOi8vY3YuaXB0Yy5vcmcvbmV3c2NvZGVzL2RpZ2l0YWxzb3VyY2V0eXBlL2NvbXBvc2l0ZVdpdGhUcmFpbmVkQWxnb3JpdGhtaWNNZWRpYWtkZXNjcmlwdGlvbnZDcmVhdGVkIGJ5IFJlY3JhZnQgQUkuAAAAxGp1bWIAAABAanVtZGNib3IAEQAQgAAAqgA4m3ETYzJwYS5oYXNoLmRhdGEAAAAAGGMyc2gnLsmcRdasMPYPD4t5w2vgAAAAfGNib3KlamV4Y2x1c2lvbnOBomVzdGFydBjZZmxlbmd0aBkTkGRuYW1lbmp1bWJmIG1hbmlmZXN0Y2FsZ2ZzaGEyNTZkaGFzaFggOmMRNh06RtF1LU5++Tguk2FwWbyFUwStMUh+TBlONO9jcGFkSQAAAAAAAAAAAAAAAqVqdW1iAAAAJ2p1bWRjMmNsABEAEIAAAKoAOJtxA2MycGEuY2xhaW0udjIAAAACdmNib3Knamluc3RhbmNlSUR4LHhtcDppaWQ6YzM0MWNiOWQtZjFkOS00YzgyLThkYjYtMjdlNjVhMGYyMGIwdGNsYWltX2dlbmVyYXRvcl9pbmZvv2RuYW1lanJlY3JhZnQuYWlndmVyc2lvbngoODFjZTgyZTJjNWMzY2JmYmU4YzZmYmUxNzlkNWY4ZDkxYzQwOWNlMXdvcmcuY29udGVudGF1dGguYzJwYV9yc2YwLjcyLjD/aXNpZ25hdHVyZXhNc2VsZiNqdW1iZj0vYzJwYS91cm46YzJwYTozMTRmYzk2ZS0xM2Q4LTQ2N2EtYTM0Ny0zNjhiZGE3NDgyMzAvYzJwYS5zaWduYXR1cmVyY3JlYXRlZF9hc3NlcnRpb25zgaJjdXJseClzZWxmI2p1bWJmPWMycGEuYXNzZXJ0aW9ucy9jMnBhLmhhc2guZGF0YWRoYXNoWCCuZn7PDjJblAMUJG2b1DPdxeznAyeHDqMf2GWYy9qN7HNnYXRoZXJlZF9hc3NlcnRpb25zgqJjdXJseC1zZWxmI2p1bWJmPWMycGEuYXNzZXJ0aW9ucy9jMnBhLmluZ3JlZGllbnQudjNkaGFzaFggs5tJyP3v3rBBmUIDzsj5ld1T9E7d9NHYLjpF7jdfIpCiY3VybHgqc2VsZiNqdW1iZj1jMnBhLmFzc2VydGlvbnMvYzJwYS5hY3Rpb25zLnYyZGhhc2hYIFi6725RfwvyqK/B/DSf/jFd7BUFLRlTCgJ2xkr2eLK5aGRjOnRpdGxleBpSZWNyYWZ0IEFJIEdlbmVyYXRlZCBJbWFnZWNhbGdmc2hhMjU2AAAH3Gp1bWIAAAAoanVtZGMyY3MAEQAQgAAAqgA4m3EDYzJwYS5zaWduYXR1cmUAAAAHrGNib3LShFkDsKIBJhghglkB5zCCAeMwggGJoAMCAQICCQC33lpjQ1FuejAKBggqhkjOPQQDAjBAMR8wHQYDVQQDDBZSZWNyYWZ0IFN0YWdpbmcgRGV2IENBMRAwDgYDVQQKDAdSZWNyYWZ0MQswCQYDVQQGEwJVUzAeFw0yNjA2MTIxOTQzNTBaFw0yNzA2MTIxOTQzNTBaMDcxCzAJBgNVBAYTAlVTMRMwEQYDVQQKEwpSZWNyYWZ0IEFJMRMwEQYDVQQDEwpyZWNyYWZ0LmFpMFkwEwYHKoZIzj0CAQYIKoZIzj0DAQcDQgAESmk1WwArIPw3hty3jsWHSA/1QOhBRu9xOjpJ2/iiIghScoEVM+Lnjds/7dqmG+giFL0vEb4DoogpX6KrGLcPNaN1MHMwDAYDVR0TAQH/BAIwADAOBgNVHQ8BAf8EBAMCBsAwEwYDVR0lBAwwCgYIKwYBBQUHAwQwHQYDVR0OBBYEFC8x6QXp/eki9cuCDx2vDJDLIV39MB8GA1UdIwQYMBaAFAILKjgayqqXSv/5v5MWaO2UeHm3MAoGCCqGSM49BAMCA0gAMEUCIFPISltGl775PEkIFRTZGsevWJvWnvBrE9kWU0MPgedQAiEAtA+AZBKEQ+DdK9mUZDctB2Wlt1iAsv0GRjfeYpReMsxZAb0wggG5MIIBX6ADAgECAgkAnPloO0+gE28wCgYIKoZIzj0EAwIwQDEfMB0GA1UEAwwWUmVjcmFmdCBTdGFnaW5nIERldiBDQTEQMA4GA1UECgwHUmVjcmFmdDELMAkGA1UEBhMCVVMwHhcNMjYwNjEyMTk0MDE2WhcNMjgwNjExMTk0MDE2WjBAMR8wHQYDVQQDDBZSZWNyYWZ0IFN0YWdpbmcgRGV2IENBMRAwDgYDVQQKDAdSZWNyYWZ0MQswCQYDVQQGEwJVUzBZMBMGByqGSM49AgEGCCqGSM49AwEHA0IABEPSEAZXFWymij2K0EnzoS/9NLO8VAwu0YpyLizvyNZPfcvcoeqFhfZD8Wj/rcdb9T3ji98q1arie99B9GRog8qjQjBAMA8GA1UdEwEB/wQFMAMBAf8wDgYDVR0PAQH/BAQDAgGGMB0GA1UdDgQWBBQCCyo4Gsqql0r/+b+TFmjtlHh5tzAKBggqhkjOPQQDAgNIADBFAiBUMDSJi5WA3kIY4BfmYqk24HLs0qpjicN0NpUP4bvNxQIhAPTvHC5v8X6FS6geI7XW7h84t1i/qdkTfg0RpMKWLMFboWNwYWRZA6QAAAAAAAAAAAAAAAAAAAAAAAAAAAAAAAAAAAAAAAAAAAAAAAAAAAAAAAAAAAAAAAAAAAAAAAAAAAAAAAAAAAAAAAAAAAAAAAAAAAAAAAAAAAAAAAAAAAAAAAAAAAAAAAAAAAAAAAAAAAAAAAAAAAAAAAAAAAAAAAAAAAAAAAAAAAAAAAAAAAAAAAAAAAAAAAAAAAAAAAAAAAAAAAAAAAAAAAAAAAAAAAAAAAAAAAAAAAAAAAAAAAAAAAAAAAAAAAAAAAAAAAAAAAAAAAAAAAAAAAAAAAAAAAAAAAAAAAAAAAAAAAAAAAAAAAAAAAAAAAAAAAAAAAAAAAAAAAAAAAAAAAAAAAAAAAAAAAAAAAAAAAAAAAAAAAAAAAAAAAAAAAAAAAAAAAAAAAAAAAAAAAAAAAAAAAAAAAAAAAAAAAAAAAAAAAAAAAAAAAAAAAAAAAAAAAAAAAAAAAAAAAAAAAAAAAAAAAAAAAAAAAAAAAAAAAAAAAAAAAAAAAAAAAAAAAAAAAAAAAAAAAAAAAAAAAAAAAAAAAAAAAAAAAAAAAAAAAAAAAAAAAAAAAAAAAAAAAAAAAAAAAAAAAAAAAAAAAAAAAAAAAAAAAAAAAAAAAAAAAAAAAAAAAAAAAAAAAAAAAAAAAAAAAAAAAAAAAAAAAAAAAAAAAAAAAAAAAAAAAAAAAAAAAAAAAAAAAAAAAAAAAAAAAAAAAAAAAAAAAAAAAAAAAAAAAAAAAAAAAAAAAAAAAAAAAAAAAAAAAAAAAAAAAAAAAAAAAAAAAAAAAAAAAAAAAAAAAAAAAAAAAAAAAAAAAAAAAAAAAAAAAAAAAAAAAAAAAAAAAAAAAAAAAAAAAAAAAAAAAAAAAAAAAAAAAAAAAAAAAAAAAAAAAAAAAAAAAAAAAAAAAAAAAAAAAAAAAAAAAAAAAAAAAAAAAAAAAAAAAAAAAAAAAAAAAAAAAAAAAAAAAAAAAAAAAAAAAAAAAAAAAAAAAAAAAAAAAAAAAAAAAAAAAAAAAAAAAAAAAAAAAAAAAAAAAAAAAAAAAAAAAAAAAAAAAAAAAAAAAAAAAAAAAAAAAAAAAAAAAAAAAAAAAAAAAAAAAAAAAAAAAAAAAAAAAAAAAAAAAAAAAAAAAAAAAAAAAAAAAAAAAAAAAAAAAAAAAAAAAAAAAAAAAAAAAAAAAAAAAAAAAAAAAAAAAAAAAAAAAAAAAAAAAAAAAAAAAAAAAAAAAAAAAAAAAAAAAAAAAAAAPZYQB7sO3C3NBe/D1i67nwULFdN1gqqe7t4QR2JD7L0h5QWbPMo48+hWB900bGsssXkYrXnNKNAbPyqA3kRR99OA0oAABZmanVtYgAAAEdqdW1kYzJtYQARABCAAACqADibcQN1cm46YzJwYTpkMDRjNTQ2YS1mN2YyLTQ4ODYtODIyNC0xZGVhMTQ1ZDE5NGMAAAALgWp1bWIAAAApanVtZGMyYXMAEQAQgAAAqgA4m3EDYzJwYS5hc3NlcnRpb25zAAAACJVqdW1iAAAARGp1bWRjYm9yABEAEIAAAKoAOJtxE2MycGEuaW5ncmVkaWVudC52MwAAAAAYYzJzaEEeWDi5BbH/o5LlS85q/CYAAAhJY2JvcqdscmVsYXRpb25zaGlwaHBhcmVudE9maGRjOnRpdGxlZnNvdXJjZWlkYzpmb3JtYXRtaW1hZ2Uvc3ZnK3htbHF2YWxpZGF0aW9uUmVzdWx0c6JuYWN0aXZlTWFuaWZlc3SjZ3N1Y2Nlc3OGo2Rjb2RleB1jbGFpbVNpZ25hdHVyZS5pbnNpZGVWYWxpZGl0eWN1cmx4TXNlbGYjanVtYmY9L2MycGEvdXJuOmMycGE6MzE0ZmM5NmUtMTNkOC00NjdhLWEzNDctMzY4YmRhNzQ4MjMwL2MycGEuc2lnbmF0dXJla2V4cGxhbmF0aW9udWNsYWltIHNpZ25hdHVyZSB2YWxpZKNkY29kZXgYY2xhaW1TaWduYXR1cmUudmFsaWRhdGVkY3VybHhNc2VsZiNqdW1iZj0vYzJwYS91cm46YzJwYTozMTRmYzk2ZS0xM2Q4LTQ2N2EtYTM0Ny0zNjhiZGE3NDgyMzAvYzJwYS5zaWduYXR1cmVrZXhwbGFuYXRpb251Y2xhaW0gc2lnbmF0dXJlIHZhbGlko2Rjb2RleBlhc3NlcnRpb24uaGFzaGVkVVJJLm1hdGNoY3VybHhdc2VsZiNqdW1iZj0vYzJwYS91cm46YzJwYTozMTRmYzk2ZS0xM2Q4LTQ2N2EtYTM0Ny0zNjhiZGE3NDgyMzAvYzJwYS5hc3NlcnRpb25zL2MycGEuaGFzaC5kYXRha2V4cGxhbmF0aW9ueD1oYXNoZWQgdXJpIG1hdGNoZWQ6IHNlbGYjanVtYmY9YzJwYS5hc3NlcnRpb25zL2MycGEuaGFzaC5kYXRho2Rjb2RleBlhc3NlcnRpb24uaGFzaGVkVVJJLm1hdGNoY3VybHhhc2VsZiNqdW1iZj0vYzJwYS91cm46YzJwYTozMTRmYzk2ZS0xM2Q4LTQ2N2EtYTM0Ny0zNjhiZGE3NDgyMzAvYzJwYS5hc3NlcnRpb25zL2MycGEuaW5ncmVkaWVudC52M2tleHBsYW5hdGlvbnhBaGFzaGVkIHVyaSBtYXRjaGVkOiBzZWxmI2p1bWJmPWMycGEuYXNzZXJ0aW9ucy9jMnBhLmluZ3JlZGllbnQudjOjZGNvZGV4GWFzc2VydGlvbi5oYXNoZWRVUkkubWF0Y2hjdXJseF5zZWxmI2p1bWJmPS9jMnBhL3VybjpjMnBhOjMxNGZjOTZlLTEzZDgtNDY3YS1hMzQ3LTM2OGJkYTc0ODIzMC9jMnBhLmFzc2VydGlvbnMvYzJwYS5hY3Rpb25zLnYya2V4cGxhbmF0aW9ueD5oYXNoZWQgdXJpIG1hdGNoZWQ6IHNlbGYjanVtYmY9YzJwYS5hc3NlcnRpb25zL2MycGEuYWN0aW9ucy52MqNkY29kZXgYYXNzZXJ0aW9uLmRhdGFIYXNoLm1hdGNoY3VybHhdc2VsZiNqdW1iZj0vYzJwYS91cm46YzJwYTozMTRmYzk2ZS0xM2Q4LTQ2N2EtYTM0Ny0zNjhiZGE3NDgyMzAvYzJwYS5hc3NlcnRpb25zL2MycGEuaGFzaC5kYXRha2V4cGxhbmF0aW9ub2RhdGEgaGFzaCB2YWxpZG1pbmZvcm1hdGlvbmFsgGdmYWlsdXJlgaNkY29kZXgbc2lnbmluZ0NyZWRlbnRpYWwudW50cnVzdGVkY3VybHhNc2VsZiNqdW1iZj0vYzJwYS91cm46YzJwYTozMTRmYzk2ZS0xM2Q4LTQ2N2EtYTM0Ny0zNjhiZGE3NDgyMzAvYzJwYS5zaWduYXR1cmVrZXhwbGFuYXRpb254HXNpZ25pbmcgY2VydGlmaWNhdGUgdW50cnVzdGVkcGluZ3JlZGllbnREZWx0YXOBonZpbmdyZWRpZW50QXNzZXJ0aW9uVVJJeGFzZWxmI2p1bWJmPS9jMnBhL3VybjpjMnBhOjMxNGZjOTZlLTEzZDgtNDY3YS1hMzQ3LTM2OGJkYTc0ODIzMC9jMnBhLmFzc2VydGlvbnMvYzJwYS5pbmdyZWRpZW50LnYzcHZhbGlkYXRpb25EZWx0YXOjZ3N1Y2Nlc3OAbWluZm9ybWF0aW9uYWyBo2Rjb2RleBxpbmdyZWRpZW50LnVua25vd25Qcm92ZW5hbmNlY3VybHhhc2VsZiNqdW1iZj0vYzJwYS91cm46YzJwYTozMTRmYzk2ZS0xM2Q4LTQ2N2EtYTM0Ny0zNjhiZGE3NDgyMzAvYzJwYS5hc3NlcnRpb25zL2MycGEuaW5ncmVkaWVudC52M2tleHBsYW5hdGlvbngrc291cmNlOiBpbmdyZWRpZW50IGRvZXMgbm90IGhhdmUgcHJvdmVuYW5jZWdmYWlsdXJlgGppbnN0YW5jZUlEeCx4bXA6aWlkOmE0MDI4ZGU0LTg1ZGQtNDQ1MC1hODM2LWYzMmM4MWZkNWJhMm5hY3RpdmVNYW5pZmVzdKNjdXJseD5zZWxmI2p1bWJmPS9jMnBhL3VybjpjMnBhOjMxNGZjOTZlLTEzZDgtNDY3YS1hMzQ3LTM2OGJkYTc0ODIzMGNhbGdmc2hhMjU2ZGhhc2hYIOjOFvXWgAxcYfarXewc/+ji6C4wIg8bs8jBXyP+KK3TbmNsYWltU2lnbmF0dXJlo2N1cmx4TXNlbGYjanVtYmY9L2MycGEvdXJuOmMycGE6MzE0ZmM5NmUtMTNkOC00NjdhLWEzNDctMzY4YmRhNzQ4MjMwL2MycGEuc2lnbmF0dXJlY2FsZ2ZzaGEyNTZkaGFzaFggz2rM0kMAw1xJUnYCWBvmr8Qzy+FNzAGHLjRgthcUmPcAAAH3anVtYgAAAEFqdW1kY2JvcgARABCAAACqADibcRNjMnBhLmFjdGlvbnMudjIAAAAAGGMyc2hD1GiPg/BAiM5F4asQYX88AAABrmNib3KhZ2FjdGlvbnOComZhY3Rpb25rYzJwYS5vcGVuZWRqcGFyYW1ldGVyc79raW5ncmVkaWVudHOBomN1cmx4LXNlbGYjanVtYmY9YzJwYS5hc3NlcnRpb25zL2MycGEuaW5ncmVkaWVudC52M2RoYXNoWCDifAKITMe8kdEiMYcjjPtGf0v4ew4g/gmtr+t7M496PP+kZmFjdGlvbmtjMnBhLmVkaXRlZGpwYXJhbWV0ZXJzv2tpbmdyZWRpZW50c4GiY3VybHgtc2VsZiNqdW1iZj1jMnBhLmFzc2VydGlvbnMvYzJwYS5pbmdyZWRpZW50LnYzZGhhc2hYIOJ8AohMx7yR0SIxhyOM+0Z/S/h7DiD+Ca2v63szj3o8/3FkaWdpdGFsU291cmNlVHlwZXhTaHR0cDovL2N2LmlwdGMub3JnL25ld3Njb2Rlcy9kaWdpdGFsc291cmNldHlwZS9jb21wb3NpdGVXaXRoVHJhaW5lZEFsZ29yaXRobWljTWVkaWFrZGVzY3JpcHRpb252Q3JlYXRlZCBieSBSZWNyYWZ0IEFJLgAAAMRqdW1iAAAAQGp1bWRjYm9yABEAEIAAAKoAOJtxE2MycGEuaGFzaC5kYXRhAAAAABhjMnNolVJBtbhW8bW8w7bm8H0EFwAAAHxjYm9ypWpleGNsdXNpb25zgaJlc3RhcnQY6GZsZW5ndGgZMWxkbmFtZW5qdW1iZiBtYW5pZmVzdGNhbGdmc2hhMjU2ZGhhc2hYIK/6uiZKTHenkZ0RSiXLk/8TLoKZcQ9p3DOnzginsVc5Y3BhZEkAAAAAAAAAAAAAAAK6anVtYgAAACdqdW1kYzJjbAARABCAAACqADibcQNjMnBhLmNsYWltLnYyAAAAAotjYm9yqGppbnN0YW5jZUlEeCx4bXA6aWlkOjQyNDRhMmJiLWViM2EtNDMyYy05YTBjLTE1M2JmZGRkOTdlMXRjbGFpbV9nZW5lcmF0b3JfaW5mb79kbmFtZWpyZWNyYWZ0LmFpZ3ZlcnNpb254KDgxY2U4MmUyYzVjM2NiZmJlOGM2ZmJlMTc5ZDVmOGQ5MWM0MDljZTF3b3JnLmNvbnRlbnRhdXRoLmMycGFfcnNmMC43Mi4w/2lzaWduYXR1cmV4TXNlbGYjanVtYmY9L2MycGEvdXJuOmMycGE6ZDA0YzU0NmEtZjdmMi00ODg2LTgyMjQtMWRlYTE0NWQxOTRjL2MycGEuc2lnbmF0dXJlcmNyZWF0ZWRfYXNzZXJ0aW9uc4GiY3VybHgpc2VsZiNqdW1iZj1jMnBhLmFzc2VydGlvbnMvYzJwYS5oYXNoLmRhdGFkaGFzaFggCX+2KbytQ05QNjJT1saYzQGb/hKeptrlv6zthGEpYIVzZ2F0aGVyZWRfYXNzZXJ0aW9uc4KiY3VybHgtc2VsZiNqdW1iZj1jMnBhLmFzc2VydGlvbnMvYzJwYS5pbmdyZWRpZW50LnYzZGhhc2hYIOJ8AohMx7yR0SIxhyOM+0Z/S/h7DiD+Ca2v63szj3o8omN1cmx4KnNlbGYjanVtYmY9YzJwYS5hc3NlcnRpb25zL2MycGEuYWN0aW9ucy52MmRoYXNoWCDcq7d2AQdwloz/u3i66P0vJ3EUw+M485mJk6NVG/SbiGhkYzp0aXRsZXgaUmVjcmFmdCBBSSBHZW5lcmF0ZWQgSW1hZ2VzcmVkYWN0ZWRfYXNzZXJ0aW9uc4BjYWxnZnNoYTI1NgAAB9xqdW1iAAAAKGp1bWRjMmNzABEAEIAAAKoAOJtxA2MycGEuc2lnbmF0dXJlAAAAB6xjYm9y0oRZA7CiASYYIYJZAecwggHjMIIBiaADAgECAgkAt95aY0NRbnowCgYIKoZIzj0EAwIwQDEfMB0GA1UEAwwWUmVjcmFmdCBTdGFnaW5nIERldiBDQTEQMA4GA1UECgwHUmVjcmFmdDELMAkGA1UEBhMCVVMwHhcNMjYwNjEyMTk0MzUwWhcNMjcwNjEyMTk0MzUwWjA3MQswCQYDVQQGEwJVUzETMBEGA1UEChMKUmVjcmFmdCBBSTETMBEGA1UEAxMKcmVjcmFmdC5haTBZMBMGByqGSM49AgEGCCqGSM49AwEHA0IABEppNVsAKyD8N4bct47Fh0gP9UDoQUbvcTo6Sdv4oiIIUnKBFTPi543bP+3aphvoIhS9LxG+A6KIKV+iqxi3DzWjdTBzMAwGA1UdEwEB/wQCMAAwDgYDVR0PAQH/BAQDAgbAMBMGA1UdJQQMMAoGCCsGAQUFBwMEMB0GA1UdDgQWBBQvMekF6f3pIvXLgg8drwyQyyFd/TAfBgNVHSMEGDAWgBQCCyo4Gsqql0r/+b+TFmjtlHh5tzAKBggqhkjOPQQDAgNIADBFAiBTyEpbRpe++TxJCBUU2RrHr1ib1p7waxPZFlNDD4HnUAIhALQPgGQShEPg3SvZlGQ3LQdlpbdYgLL9BkY33mKUXjLMWQG9MIIBuTCCAV+gAwIBAgIJAJz5aDtPoBNvMAoGCCqGSM49BAMCMEAxHzAdBgNVBAMMFlJlY3JhZnQgU3RhZ2luZyBEZXYgQ0ExEDAOBgNVBAoMB1JlY3JhZnQxCzAJBgNVBAYTAlVTMB4XDTI2MDYxMjE5NDAxNloXDTI4MDYxMTE5NDAxNlowQDEfMB0GA1UEAwwWUmVjcmFmdCBTdGFnaW5nIERldiBDQTEQMA4GA1UECgwHUmVjcmFmdDELMAkGA1UEBhMCVVMwWTATBgcqhkjOPQIBBggqhkjOPQMBBwNCAARD0hAGVxVspoo9itBJ86Ev/TSzvFQMLtGKci4s78jWT33L3KHqhYX2Q/Fo/63HW/U944vfKtWq4nvfQfRkaIPKo0IwQDAPBgNVHRMBAf8EBTADAQH/MA4GA1UdDwEB/wQEAwIBhjAdBgNVHQ4EFgQUAgsqOBrKqpdK//m/kxZo7ZR4ebcwCgYIKoZIzj0EAwIDSAAwRQIgVDA0iYuVgN5CGOAX5mKpNuBy7NKqY4nDdDaVD+G7zcUCIQD07xwub/F+hUuoHiO11u4fOLdYv6nZE34NEaTClizBW6FjcGFkWQOkAAAAAAAAAAAAAAAAAAAAAAAAAAAAAAAAAAAAAAAAAAAAAAAAAAAAAAAAAAAAAAAAAAAAAAAAAAAAAAAAAAAAAAAAAAAAAAAAAAAAAAAAAAAAAAAAAAAAAAAAAAAAAAAAAAAAAAAAAAAAAAAAAAAAAAAAAAAAAAAAAAAAAAAAAAAAAAAAAAAAAAAAAAAAAAAAAAAAAAAAAAAAAAAAAAAAAAAAAAAAAAAAAAAAAAAAAAAAAAAAAAAAAAAAAAAAAAAAAAAAAAAAAAAAAAAAAAAAAAAAAAAAAAAAAAAAAAAAAAAAAAAAAAAAAAAAAAAAAAAAAAAAAAAAAAAAAAAAAAAAAAAAAAAAAAAAAAAAAAAAAAAAAAAAAAAAAAAAAAAAAAAAAAAAAAAAAAAAAAAAAAAAAAAAAAAAAAAAAAAAAAAAAAAAAAAAAAAAAAAAAAAAAAAAAAAAAAAAAAAAAAAAAAAAAAAAAAAAAAAAAAAAAAAAAAAAAAAAAAAAAAAAAAAAAAAAAAAAAAAAAAAAAAAAAAAAAAAAAAAAAAAAAAAAAAAAAAAAAAAAAAAAAAAAAAAAAAAAAAAAAAAAAAAAAAAAAAAAAAAAAAAAAAAAAAAAAAAAAAAAAAAAAAAAAAAAAAAAAAAAAAAAAAAAAAAAAAAAAAAAAAAAAAAAAAAAAAAAAAAAAAAAAAAAAAAAAAAAAAAAAAAAAAAAAAAAAAAAAAAAAAAAAAAAAAAAAAAAAAAAAAAAAAAAAAAAAAAAAAAAAAAAAAAAAAAAAAAAAAAAAAAAAAAAAAAAAAAAAAAAAAAAAAAAAAAAAAAAAAAAAAAAAAAAAAAAAAAAAAAAAAAAAAAAAAAAAAAAAAAAAAAAAAAAAAAAAAAAAAAAAAAAAAAAAAAAAAAAAAAAAAAAAAAAAAAAAAAAAAAAAAAAAAAAAAAAAAAAAAAAAAAAAAAAAAAAAAAAAAAAAAAAAAAAAAAAAAAAAAAAAAAAAAAAAAAAAAAAAAAAAAAAAAAAAAAAAAAAAAAAAAAAAAAAAAAAAAAAAAAAAAAAAAAAAAAAAAAAAAAAAAAAAAAAAAAAAAAAAAAAAAAAAAAAAAAAAAAAAAAAAAAAAAAAAAAAAAAAAAAAAAAAAAAAAAAAAAAAAAAAAAAAAAAAAAAAAAAAAAAAAAAAAAAAAAAAAAAAAAAAAAAAAAAAAAAAAAAAAAAAAAAAAAAAAAAAAAAAAAAAAAAAAAAAAAAAAAAAAAAAAAD2WECodqOlZF1/9kM49/2nyPUauecofqIvqnPMBOIS+iJ3gNBVPt+b0McfjgysAiRphyLGSiTJQFDi210ubXD5kaKj</c2pa:manifest></metadata><defs><linearGradient id="gradient_0" gradientUnits="userSpaceOnUse" x1="308.02582" y1="391.60974" x2="324.46744" y2="528.66809"><stop offset="0" stop-color="#7FC02B"/><stop offset="1" stop-color="#198846"/></linearGradient></defs><path fill="url(#gradient_0)" d="M134.504 345.017C136.883 344.285 139.216 343.323 141.613 342.59C157.557 337.717 175.175 338.599 190.652 344.728C191.694 345.14 193.953 346.041 194.865 346.618C199.356 348.819 202.511 351.002 206.674 353.74C210.219 356.667 216.766 362.333 219.269 365.911C221.927 369.148 223.794 371.899 226.072 375.44C229.652 382.182 232.689 388.508 234.282 396.041C234.482 396.985 234.89 398.826 235.214 399.694C249.36 399.749 262.98 399.482 277.228 399.742L295.343 400.229C298.179 400.313 302.532 400.545 305.257 400.442C311.561 400.915 318.452 401.032 324.836 401.38C336.244 402.001 347.64 402.836 359.017 403.886C364.397 404.368 371.806 404.771 377.003 405.703L377.381 405.308C378.282 406.253 391.291 407.376 393.725 407.677C413.3 410.1 432.744 413.489 451.985 417.833C457.191 419.071 462.368 420.423 467.514 421.886C469.831 422.547 473.942 423.882 476.064 424.272C477.119 425.013 482.974 426.672 484.692 427.361C493.24 430.786 507.254 436.611 512 444.724L512 481.323L512 496.21C509.977 502.013 507.668 506.931 501.787 509.821C500.332 510.529 498.834 511.146 497.302 511.666C496.97 511.777 497.075 511.751 496.69 512L436.08 512L158.251 512L15.3186 512C14.7287 511.659 13.1964 511.168 12.4692 510.817C4.09292 506.769 3.0068 504.131 0 496.207L0 444.629C5.50279 435.828 17.733 431.209 26.9837 427.362C29.9214 426.141 33.2573 425.511 36.1838 424.128C38.4353 423.866 45.9033 421.488 48.6937 420.771C58.8719 418.084 69.1424 415.76 79.4856 413.803C82.0661 413.319 87.2681 412.205 89.7041 412.027C89.8679 395.135 95.8841 378.823 106.728 365.869L107.566 364.692C114.71 356.973 121.499 351.509 131.019 346.821C132.284 346.226 133.309 345.765 134.504 345.017Z"/><defs><linearGradient id="gradient_1" gradientUnits="userSpaceOnUse" x1="32.212715" y1="423.04166" x2="100.64651" y2="543.00464"><stop offset="0" stop-color="#97CE26"/><stop offset="1" stop-color="#6DB730"/></linearGradient></defs><path fill="url(#gradient_1)" d="M36.1838 424.128C38.4353 423.866 45.9033 421.488 48.6937 420.771C58.8719 418.084 69.1424 415.76 79.4856 413.803C82.0661 413.319 87.2681 412.205 89.7041 412.027C89.7069 414.443 89.7254 419.671 90.2108 421.946C90.0981 427.897 95.237 441.931 98.1431 447.117C99.2445 449.083 101.138 451.876 102.035 453.784L102.918 454.778C106.18 459.406 109.889 463.703 113.99 467.607C116.48 469.891 119.143 472.178 121.299 474.764C129.992 484.212 140.04 493.4 149.003 502.678C151.918 505.695 155.491 508.952 158.251 512L15.3186 512C14.7287 511.659 13.1964 511.168 12.4692 510.817C4.09292 506.769 3.0068 504.131 0 496.207L0 444.629C5.50279 435.828 17.733 431.209 26.9837 427.362C29.9214 426.141 33.2573 425.511 36.1838 424.128Z"/><path fill="#D7ECFC" d="M134.504 345.017C136.883 344.285 139.216 343.323 141.613 342.59C157.557 337.717 175.175 338.599 190.652 344.728C191.694 345.14 193.953 346.041 194.865 346.618C194.433 347.304 194.018 347.846 193.369 348.345C185.622 354.297 177.583 359.888 169.709 365.673C168.367 366.659 167.057 367.568 165.568 368.323C166.986 369.747 166.743 382.075 166.082 384.199C163.511 383.08 161.817 383.153 159.312 384.433L141.342 397.45C138.256 399.686 134.082 402.433 131.42 405.112C130.597 405.939 130.115 407.813 129.909 408.981C130.344 413.454 134.868 425.041 136.219 429.948C136.794 432.035 140.143 442.4 140.915 443.966L139.987 443.442C136.749 444.503 130.141 454.47 129.94 454.484C122.744 454.976 115.452 454.277 108.221 454.382C106.883 454.401 103.312 454.136 102.035 453.784C101.138 451.876 99.2445 449.083 98.1431 447.117C95.237 441.931 90.0981 427.897 90.2108 421.946C89.7254 419.671 89.7069 414.443 89.7041 412.027C89.8679 395.135 95.8841 378.823 106.728 365.869L107.566 364.692C114.71 356.973 121.499 351.509 131.019 346.821C132.284 346.226 133.309 345.765 134.504 345.017Z"/><defs><linearGradient id="gradient_2" gradientUnits="userSpaceOnUse" x1="173.43385" y1="362.35788" x2="152.81192" y2="332.36325"><stop offset="0" stop-color="#474747"/><stop offset="1" stop-color="#636363"/></linearGradient></defs><path fill="url(#gradient_2)" d="M134.504 345.017C136.883 344.285 139.216 343.323 141.613 342.59C157.557 337.717 175.175 338.599 190.652 344.728C191.694 345.14 193.953 346.041 194.865 346.618C194.433 347.304 194.018 347.846 193.369 348.345C185.622 354.297 177.583 359.888 169.709 365.673C168.367 366.659 167.057 367.568 165.568 368.323C162.916 369.059 161.865 368.985 159.37 367.861L141.865 355.186C139.158 353.23 132.875 348.939 131.019 346.821C132.284 346.226 133.309 345.765 134.504 345.017Z"/><defs><linearGradient id="gradient_3" gradientUnits="userSpaceOnUse" x1="109.13021" y1="408.31039" x2="88.352707" y2="380.25412"><stop offset="0" stop-color="#474646"/><stop offset="1" stop-color="#626262"/></linearGradient></defs><path fill="url(#gradient_3)" d="M106.728 365.869C108.508 370.579 109.826 375.884 111.339 380.717C113.209 386.688 115.117 392.776 116.661 398.832C116.942 399.934 116.653 401.606 116.21 402.618C115.969 403.178 115.675 403.715 115.332 404.22C111.989 407.391 104.603 411.956 100.606 414.902C98.7333 416.282 91.9453 421.039 90.2108 421.946C89.7254 419.671 89.7069 414.443 89.7041 412.027C89.8679 395.135 95.8841 378.823 106.728 365.869Z"/><defs><linearGradient id="gradient_4" gradientUnits="userSpaceOnUse" x1="159.40598" y1="376.12799" x2="166.09627" y2="376.03647"><stop offset="0" stop-color="#C0E1FD"/><stop offset="1" stop-color="#E8F6FF"/></linearGradient></defs><path fill="url(#gradient_4)" d="M159.37 367.861C161.865 368.985 162.916 369.059 165.568 368.323C166.986 369.747 166.743 382.075 166.082 384.199C163.511 383.08 161.817 383.153 159.312 384.433C159.068 382.951 159.129 369.433 159.37 367.861Z"/><defs><linearGradient id="gradient_5" gradientUnits="userSpaceOnUse" x1="179.485" y1="447.0491" x2="149.70439" y2="389.85007"><stop offset="0" stop-color="#373737"/><stop offset="1" stop-color="#606060"/></linearGradient></defs><path fill="url(#gradient_5)" d="M159.312 384.433C161.817 383.153 163.511 383.08 166.082 384.199C169.119 385.952 173.156 389.111 176.118 391.266L193.699 404.058C196.728 407.597 196.256 410.127 194.847 414.293C191.557 424.023 188.554 433.887 185.142 443.563C184.959 444.081 185.053 443.6 184.98 444.131C184.602 444.497 184.218 444.856 183.828 445.209C181.312 447.469 178.265 447.022 175.047 447.018C165.457 447.005 155.852 447.14 146.266 446.937C143.7 446.883 142.517 445.78 140.915 443.966C140.143 442.4 136.794 432.035 136.219 429.948C134.868 425.041 130.344 413.454 129.909 408.981C130.115 407.813 130.597 405.939 131.42 405.112C134.082 402.433 138.256 399.686 141.342 397.45L159.312 384.433Z"/><path fill="#D7ECFC" d="M194.865 346.618C199.356 348.819 202.511 351.002 206.674 353.74C210.219 356.667 216.766 362.333 219.269 365.911C221.927 369.148 223.794 371.899 226.072 375.44C229.652 382.182 232.689 388.508 234.282 396.041C234.482 396.985 234.89 398.826 235.214 399.694C236.168 407.177 236.908 414.25 235.664 421.806C234.394 421.127 233.114 420.231 231.929 419.393C225.002 414.495 217.771 409.928 211.062 404.743C210.62 404.401 209.625 402.484 209.265 401.857C208.515 400.755 208.634 400.777 208.866 399.306L208.338 398.643C206.45 398.921 194.679 402.88 193.699 404.058L176.118 391.266C173.156 389.111 169.119 385.952 166.082 384.199C166.743 382.075 166.986 369.747 165.568 368.323C167.057 367.568 168.367 366.659 169.709 365.673C177.583 359.888 185.622 354.297 193.369 348.345C194.018 347.846 194.433 347.304 194.865 346.618Z"/><path fill="#474747" d="M219.269 365.911C221.927 369.148 223.794 371.899 226.072 375.44C229.652 382.182 232.689 388.508 234.282 396.041C234.482 396.985 234.89 398.826 235.214 399.694C236.168 407.177 236.908 414.25 235.664 421.806C234.394 421.127 233.114 420.231 231.929 419.393C225.002 414.495 217.771 409.928 211.062 404.743C210.62 404.401 209.625 402.484 209.265 401.857C209.181 400.831 209.098 399.496 209.363 398.497C211.905 388.92 215.047 379.482 217.836 369.97C218.247 368.569 218.645 367.234 219.269 365.911Z"/><defs><linearGradient id="gradient_6" gradientUnits="userSpaceOnUse" x1="165.65588" y1="470.48849" x2="160.0746" y2="439.53961"><stop offset="0" stop-color="#7DA1B2"/><stop offset="1" stop-color="#CEEEFF"/></linearGradient></defs><path fill="url(#gradient_6)" d="M102.035 453.784C103.312 454.136 106.883 454.401 108.221 454.382C115.452 454.277 122.744 454.976 129.94 454.484C130.141 454.47 136.749 444.503 139.987 443.442L140.915 443.966C142.517 445.78 143.7 446.883 146.266 446.937C155.852 447.14 165.457 447.005 175.047 447.018C178.265 447.022 181.312 447.469 183.828 445.209C184.218 444.856 184.602 444.497 184.98 444.131C185.654 443.868 185.516 443.904 185.97 443.339C186.881 443.715 195.448 453.177 195.754 454.238L195.089 454.676C195.411 454.891 197.647 454.572 198.764 454.721L198.706 455.209C188.704 455.291 190.306 458.108 187.164 465.452C186.339 468.559 181.764 481.788 182.2 483.645C181.19 484.105 178.131 484.686 176.988 484.886C167.532 486.606 157.838 486.534 148.409 484.672C147.248 484.434 145.156 484.091 144.157 483.728C137.918 481.95 131.817 479.648 126.17 476.423C124.79 475.635 123.06 474.114 121.445 474.044L121.299 474.764C119.143 472.178 116.48 469.891 113.99 467.607C109.889 463.703 106.18 459.406 102.918 454.778L102.035 453.784Z"/><defs><linearGradient id="gradient_7" gradientUnits="userSpaceOnUse" x1="166.46495" y1="485.92682" x2="163.8905" y2="470.07584"><stop offset="0" stop-color="#4A7077"/><stop offset="1" stop-color="#7A9DAE"/></linearGradient></defs><path fill="url(#gradient_7)" d="M140.882 472.172C141.404 472.652 141.651 473.394 141.952 474.061C144.051 474.267 152.2 472.415 154.779 471.941L178.612 467.656C180.479 467.332 185.008 467.347 186.17 466.714C186.496 466.102 186.659 465.929 187.164 465.452C186.339 468.559 181.764 481.788 182.2 483.645C181.19 484.105 178.131 484.686 176.988 484.886C167.532 486.606 157.838 486.534 148.409 484.672C147.248 484.434 145.156 484.091 144.157 483.728C143.481 480.212 141.804 475.882 140.882 472.172Z"/><defs><linearGradient id="gradient_8" gradientUnits="userSpaceOnUse" x1="128.6277" y1="482.52792" x2="128.90912" y2="464.63065"><stop offset="0" stop-color="#0A090B"/><stop offset="1" stop-color="#484748"/></linearGradient></defs><path fill="url(#gradient_8)" d="M138.019 463.525C138.729 465.365 140.31 471.103 140.882 472.172C141.804 475.882 143.481 480.212 144.157 483.728C137.918 481.95 131.817 479.648 126.17 476.423C124.79 475.635 123.06 474.114 121.445 474.044L121.299 474.764C119.143 472.178 116.48 469.891 113.99 467.607C115.305 464.635 134.433 464.616 137.824 465.059C137.799 464.388 137.757 464.143 138.019 463.525Z"/><path fill="#474747" d="M102.918 454.778C110.557 454.711 118.221 455.119 125.847 455.163C132.932 455.204 136.501 455.663 138.019 463.525C137.757 464.143 137.799 464.388 137.824 465.059C134.433 464.616 115.305 464.635 113.99 467.607C109.889 463.703 106.18 459.406 102.918 454.778Z"/><defs><linearGradient id="gradient_9" gradientUnits="userSpaceOnUse" x1="210.13419" y1="455.07721" x2="211.35603" y2="398.56174"><stop offset="0" stop-color="#AFCBDE"/><stop offset="1" stop-color="#D6F3FF"/></linearGradient></defs><path fill="url(#gradient_9)" d="M193.699 404.058C194.679 402.88 206.45 398.921 208.338 398.643L208.866 399.306C208.634 400.777 208.515 400.755 209.265 401.857C209.625 402.484 210.62 404.401 211.062 404.743C217.771 409.928 225.002 414.495 231.929 419.393C233.114 420.231 234.394 421.127 235.664 421.806C235.454 428.744 231.625 439.449 228.594 445.696C227.837 447.299 224.354 454.074 223.026 454.727C215.12 454.669 206.653 455.022 198.706 455.209L198.764 454.721C197.647 454.572 195.411 454.891 195.089 454.676L195.754 454.238C195.448 453.177 186.881 443.715 185.97 443.339C185.516 443.904 185.654 443.868 184.98 444.131C185.053 443.6 184.959 444.081 185.142 443.563C188.554 433.887 191.557 424.023 194.847 414.293C196.256 410.127 196.728 407.597 193.699 404.058Z"/><path fill="#92B4CA" d="M198.764 454.721C200.482 454.512 203.119 455.092 204.855 454.754C210.835 453.587 218.551 452.189 224.463 451.393C225.452 451.26 226.601 446.756 228.594 445.696C227.837 447.299 224.354 454.074 223.026 454.727C215.12 454.669 206.653 455.022 198.706 455.209L198.764 454.721Z"/><defs><linearGradient id="gradient_10" gradientUnits="userSpaceOnUse" x1="202.07182" y1="482.82394" x2="202.17723" y2="454.92697"><stop offset="0" stop-color="#161617"/><stop offset="1" stop-color="#515050"/></linearGradient></defs><path fill="url(#gradient_10)" d="M198.706 455.209C206.653 455.022 215.12 454.669 223.026 454.727C213.354 468.979 198.854 479.25 182.2 483.645C181.764 481.788 186.339 468.559 187.164 465.452C190.306 458.108 188.704 455.291 198.706 455.209Z"/><path fill="#027D4D" d="M436.08 512C439.212 510.477 461.08 511.576 465.609 511.248C466.369 511.193 470.365 511.341 470.731 511.23C474.621 510.048 478.648 507.971 482.619 506.751C487.828 505.151 492.976 503.969 498.165 502.556C502.588 501.351 504.886 500.405 509.47 499.562C509.643 499.068 509.576 499.303 509.706 498.711L509.803 498.257L510.208 498.145L510.63 498.568C511.928 495.76 510.553 480.924 511.446 478.877C511.883 479.435 511.909 480.556 512 481.323L512 496.21C509.977 502.013 507.668 506.931 501.787 509.821C500.332 510.529 498.834 511.146 497.302 511.666C496.97 511.777 497.075 511.751 496.69 512L436.08 512Z"/><defs><linearGradient id="gradient_11" gradientUnits="userSpaceOnUse" x1="503.82291" y1="380.47046" x2="353.87018" y2="61.016361"><stop offset="0" stop-color="#EFB61B"/><stop offset="1" stop-color="#FFF17C"/></linearGradient></defs><path fill="url(#gradient_11)" d="M420.794 0L432.666 0C434.782 0.861155 437.816 0.968986 440.18 1.69295C447.012 3.78516 453.035 6.67761 458.567 11.2261C460.119 12.4872 461.489 14.164 463.075 15.5565C472.169 25.0888 477.123 37.8312 476.855 51.0027C476.677 57.0079 475.907 60.6162 474.091 66.3087C471.685 74.0227 463.682 82.0291 471.01 89.7222C473.718 92.5655 477.729 94.1089 481.132 95.9382C496.533 104.217 507.598 119.804 511.084 136.867C511.386 138.345 511.399 140.789 512 142.088L512 228.454L511.82 228.847C511.027 230.604 510.556 232.301 509.582 234.037C502.329 246.962 488.178 243.771 475.784 244.068C476.218 248.087 476.005 255.929 476.006 260.287L476.003 289.199L476.008 330.697C476.011 337.143 476.276 345.956 475.979 352.168L476.064 424.272C473.942 423.882 469.831 422.547 467.514 421.886C462.368 420.423 457.191 419.071 451.985 417.833C432.744 413.489 413.3 410.1 393.725 407.677C391.291 407.376 378.282 406.253 377.381 405.308C376.91 399.66 377.197 389.813 377.206 383.893C377.225 372.228 377.064 360.255 377.269 348.619C377.071 346.582 377.213 341.367 377.218 339.162L377.236 320.956L377.26 271.507C377.267 262.796 377.515 252.608 377.175 244.014C377.72 239.562 377.402 229.419 377.373 224.371L377.19 226.018C376.772 229.614 377.829 241.518 376.722 243.365C375.085 243.698 373.238 243.255 371.533 243.348C366.168 243.665 360.697 243.927 355.405 242.732C354.657 242.563 348.09 238.99 347.711 238.569C345.37 235.974 342.59 230.998 341.96 227.555C341.546 225.294 341.631 221.102 341.614 218.711L341.539 203.938L341.769 143.231C341.608 137.478 343.773 130.167 346.04 124.886C350.745 113.929 357.67 105.828 367.211 98.747C373.284 94.2388 381.524 93.3623 384.494 85.8879C386.976 79.6401 382.623 74.2405 380.025 68.3213C378.905 65.7077 377.502 60.3235 377.057 57.5368C375.037 44.8925 378.391 30.8841 385.956 20.6092C392.311 11.9781 400.975 5.18307 411.337 2.30749C413.17 1.76211 414.991 1.1149 416.893 0.85549C418.283 0.665872 419.486 0.543572 420.794 0Z"/><path fill="#FEE97C" d="M420.794 0L432.666 0C434.782 0.861155 437.816 0.968986 440.18 1.69295C447.012 3.78516 453.035 6.67761 458.567 11.2261C460.119 12.4872 461.489 14.164 463.075 15.5565C462.226 15.7598 462.286 15.75 461.604 16.3054C460.954 16.207 460.63 15.8005 460.124 15.3514L459.852 15.4529L460.061 16.3027C458.797 18.0743 454.886 16.4262 453.51 16.9604C449.469 18.5292 445.701 19.5209 441.344 19.9509C439.924 22.1883 434.855 23.1825 432.505 24.7288C429.837 26.4841 427.209 28.2836 424.716 30.2889C423.673 31.1098 422.84 30.5578 420.757 32.3551C418.235 34.5314 414.595 36.0744 411.707 38.3619L411.448 38.3661C410.298 38.3944 410.453 38.3033 409.686 38.9424C405.994 42.0194 401.069 44.3257 397.182 47.1764C396.164 47.9231 393.796 51.632 392.944 52.6897C392.256 53.5442 391.433 53.1123 390.521 54.4189C389.225 56.2696 387.832 58.0506 386.348 59.7545C385.178 61.1095 385.033 64.2252 383.024 63.5599C382.514 64.0851 382.097 64.5163 381.625 65.0834L381.373 64.9221L381.27 64.4009C380.572 64.5413 380.815 64.3585 380.397 64.7884C380.283 66.3984 381.65 66.087 380.897 67.2245L380.388 66.7779L380.321 67.2464C380.247 67.7465 380.236 67.8464 380.025 68.3213C378.905 65.7077 377.502 60.3235 377.057 57.5368C375.037 44.8925 378.391 30.8841 385.956 20.6092C392.311 11.9781 400.975 5.18307 411.337 2.30749C413.17 1.76211 414.991 1.1149 416.893 0.85549C418.283 0.665872 419.486 0.543572 420.794 0Z"/><defs><linearGradient id="gradient_12" gradientUnits="userSpaceOnUse" x1="426.60501" y1="391.8598" x2="427.0817" y2="423.96515"><stop offset="0" stop-color="#D89142"/><stop offset="1" stop-color="#C26F5E"/></linearGradient></defs><path fill="url(#gradient_12)" d="M377.269 348.619C377.778 352.477 377.474 356.96 377.64 360.886C378.02 369.907 377.872 378.959 377.82 387.987C377.808 390.193 377.591 392.513 377.831 394.699C377.833 394.7 379.133 394.851 379.427 394.828C391.382 393.899 404.841 394.237 416.701 394.053C424.445 393.933 428.145 392.138 435.493 391.92C438.79 391.808 442.145 392.068 445.433 392.241L461.836 393.197C465.8 393.437 471.51 392.867 475.24 393.837C475.709 392.008 475.293 387.78 475.401 385.805C475.723 379.878 474.671 356.618 475.979 352.168L476.064 424.272C473.942 423.882 469.831 422.547 467.514 421.886C462.368 420.423 457.191 419.071 451.985 417.833C432.744 413.489 413.3 410.1 393.725 407.677C391.291 407.376 378.282 406.253 377.381 405.308C376.91 399.66 377.197 389.813 377.206 383.893C377.225 372.228 377.064 360.255 377.269 348.619Z"/><defs><linearGradient id="gradient_13" gradientUnits="userSpaceOnUse" x1="157.5047" y1="359.85046" x2="8.7571697" y2="65.893272"><stop offset="0" stop-color="#F3BD1E"/><stop offset="1" stop-color="#FFEE7D"/></linearGradient></defs><path fill="url(#gradient_13)" d="M79.353 0L91.1523 0C91.3038 0.0582173 91.4552 0.116435 91.6067 0.174652C102.279 1.89867 109.412 5.10687 117.967 11.903C127.332 19.5735 133.94 32.4244 135.248 44.4036C136.236 53.4541 134.802 62.9403 130.809 71.1451C129.458 73.9493 127.246 77.3212 126.833 80.382C125.31 91.6793 137.494 93.9024 144.66 98.7655C159.051 108.709 168.421 124.406 170.347 141.791C170.423 142.554 170.395 142.897 170.649 143.627C170.918 145.068 170.652 148.646 170.605 150.274C170.527 153.707 170.49 157.14 170.495 160.573L170.615 212.672C170.611 215.92 170.573 219.054 170.659 222.304C170.691 223.516 171.119 227.778 171.047 228.377L170.581 227.836C169.923 229.081 169.772 230.826 169.168 232.211C162.745 246.942 147.544 243.847 134.546 244.049C135.072 249.401 134.728 260.893 134.724 266.58L134.734 310.048L134.77 334.061C134.779 336.919 135.155 342.501 134.504 345.017C133.309 345.765 132.284 346.226 131.019 346.821C121.499 351.509 114.71 356.973 107.566 364.692L106.728 365.869C95.8841 378.823 89.8679 395.135 89.7041 412.027C87.2681 412.205 82.0661 413.319 79.4856 413.803C69.1424 415.76 58.8719 418.084 48.6937 420.771C45.9033 421.488 38.4353 423.866 36.1838 424.128C35.6677 416.089 35.9723 405.397 35.9745 397.208L36.0357 353.362C35.8829 349.365 36.0016 344.613 36.0041 340.577L36.0146 316.621L36.0311 244.026C23.7848 244.013 9.43338 246.523 2.46325 234.135C1.43381 232.306 1.00759 230.569 0.171339 228.785L0 228.428L0 142.36C0.594922 140.938 0.816013 137.41 1.21497 135.614C2.93311 128.085 6.02394 120.936 10.3327 114.526C15.1852 107.306 21.4193 101.371 28.8405 96.8392C34.1167 93.6172 40.5113 92.4179 43.1145 86.0753C45.6698 79.8496 41.3638 74.3504 38.8781 68.7807C38.5812 67.968 38.2755 67.1682 37.989 66.3495C33.5836 53.7252 34.4275 39.8612 40.3316 27.8644C46.2698 15.6411 55.4675 7.39024 68.2086 2.82567C71.8425 1.5238 76.1414 1.20482 79.353 0Z"/><path fill="#FEE97C" d="M79.353 0L91.1523 0C91.3038 0.0582173 91.4552 0.116435 91.6067 0.174652C102.279 1.89867 109.412 5.10687 117.967 11.903C117.296 11.909 117.207 11.9228 116.633 11.5761L116.357 11.8121L116.454 12.6747L116.676 12.719L116.924 12.511C117.201 13.0655 117.163 13.0368 117.071 13.6591L117.292 13.9101L117.78 13.6954C117.922 13.8567 119.921 18.0483 119.913 18.4823C118.181 19.3923 118.137 17.2329 116.232 18.0373C114.889 18.6042 114.746 19.5285 112.965 19.0125C111.685 18.6417 109.418 17.1116 108.18 17.8559C106.461 19.1488 104.523 18.2136 102.643 18.8979C101.753 19.2682 101.981 20.8633 101.126 21.1281C99.1651 21.7358 98.7545 20.8521 97.2162 22.4553C95.3183 24.4334 93.6385 24.8334 91.1034 25.186L90.9308 25.5275L91.5461 26.1062C91.2854 26.8361 90.5018 27.189 89.7725 27.4607C84.8989 29.2763 81.7023 32.5787 77.215 35.0916C77.1244 35.666 77.1355 35.4652 77.2303 36.0465C76.753 36.3348 76.4588 36.3548 75.8825 36.3565C73.5791 36.3634 73.9321 38.0346 71.5181 38.7472C71.6629 38.9303 71.8077 39.1133 71.9525 39.2964C71.3944 39.9916 67.2936 41.145 66.1031 41.8924C62.4199 44.2047 61.2864 45.6459 57.2457 47.435C56.6523 47.1869 56.8707 47.3914 56.5814 46.8314L56.1985 47.0312L56.0908 47.4105L56.4974 47.712L56.4093 48.2421C55.5689 48.7465 55.5108 48.746 54.5582 49.0428L54.4194 49.9232L54.0503 49.9743L53.7598 49.2264C53.1675 49.5684 52.8656 49.9846 52.3428 49.9832C50.961 51.8649 49.4573 53.5819 47.9431 55.3551C48.0192 55.7259 48.3784 57.5261 48.2878 57.7362C47.6676 59.1746 44.9215 65.7496 43.6363 66.055L42.9143 65.5211L42.4885 65.6073C41.6915 66.9389 42.712 66.6065 42.2403 67.7266C41.4742 67.4117 41.6623 67.4242 41.0765 66.664C41.1075 65.0601 42.1134 66.6842 41.5476 65.1027L41.0162 64.7448L40.6873 64.8984C40.5632 65.8902 40.7373 67.1722 40.3476 67.7206L39.5125 68.0198L39.4886 67.8202C39.2999 68.1591 39.1083 68.4669 38.8781 68.7807C38.5812 67.968 38.2755 67.1682 37.989 66.3495C33.5836 53.7252 34.4275 39.8612 40.3316 27.8644C46.2698 15.6411 55.4675 7.39024 68.2086 2.82567C71.8425 1.5238 76.1414 1.20482 79.353 0Z"/><defs><linearGradient id="gradient_14" gradientUnits="userSpaceOnUse" x1="63.89032" y1="392.96368" x2="64.12957" y2="423.03616"><stop offset="0" stop-color="#D89144"/><stop offset="1" stop-color="#C26E5D"/></linearGradient></defs><path fill="url(#gradient_14)" d="M36.0357 353.362C37.0736 358.712 36.5616 366.054 36.6372 371.549C36.7541 380.05 36.368 388.716 36.6844 397.201L36.9347 396.764C41.0331 395.839 46.4397 395.692 50.5647 395.571C63.8754 395.179 77.236 396.81 90.1439 393.267C90.3153 393.247 90.4868 393.227 90.6582 393.207L90.7001 392.738C91.3161 392.912 91.1399 392.889 91.6863 393.339C92.0853 392.575 93.0549 389.093 93.5576 387.595C95.2519 382.547 103.054 367.74 107.16 364.641L107.566 364.692L106.728 365.869C95.8841 378.823 89.8679 395.135 89.7041 412.027C87.2681 412.205 82.0661 413.319 79.4856 413.803C69.1424 415.76 58.8719 418.084 48.6937 420.771C45.9033 421.488 38.4353 423.866 36.1838 424.128C35.6677 416.089 35.9723 405.397 35.9745 397.208L36.0357 353.362Z"/><defs><linearGradient id="gradient_15" gradientUnits="userSpaceOnUse" x1="346.21701" y1="367.01019" x2="173.28813" y2="37.161808"><stop offset="0" stop-color="#F2BB1A"/><stop offset="1" stop-color="#FFF284"/></linearGradient></defs><path fill="url(#gradient_15)" d="M250.097 0L261.892 0C265.373 1.30916 269.899 1.53622 273.735 3.03272C285.978 7.80829 295.663 16.6058 301.32 28.5182C307.005 40.1976 307.475 53.6991 303.586 65.9793C301.179 73.5788 294.749 79.4474 298.648 87.3104C301.19 92.4396 308.682 94.5429 313.368 97.5315C325.59 105.327 334.479 117.07 338.863 130.877C340.298 135.399 340.602 138.755 341.244 143.284C340.995 148.97 341.231 156.534 341.219 162.413L341.18 205.328C341.173 207.576 340.762 226.918 341.045 227.945C340.73 231.929 337.712 236.667 334.708 239.201C328.681 244.286 323.665 244.069 316.409 244.046C312.738 244.019 309.066 244.019 305.395 244.045C305.796 251.553 305.548 261.042 305.55 268.66L305.554 312.34L305.55 347.626C305.548 352.423 305.81 360.697 305.47 365.111C305.526 372.439 305.528 379.767 305.476 387.095C305.466 390.766 305.632 396.934 305.257 400.442C302.532 400.545 298.179 400.313 295.343 400.229L277.228 399.742C262.98 399.482 249.36 399.749 235.214 399.694C234.89 398.826 234.482 396.985 234.282 396.041C232.689 388.508 229.652 382.182 226.072 375.44C223.794 371.899 221.927 369.148 219.269 365.911C216.766 362.333 210.219 356.667 206.674 353.74C206.78 352.267 206.539 345.466 206.536 343.461L206.524 318.452C206.532 293.754 206.763 268.698 206.503 244.026C202.923 243.976 198.91 244.005 195.353 244.046C188.858 244.119 183.537 244.071 178.139 239.864C174.691 237.176 171.591 232.8 171.047 228.377C171.119 227.778 170.691 223.516 170.659 222.304C170.573 219.054 170.611 215.92 170.615 212.672L170.495 160.573C170.49 157.14 170.527 153.707 170.605 150.274C170.652 148.646 170.918 145.068 170.649 143.627C171.35 139.798 171.588 136.375 172.71 132.479C176.913 117.885 185.88 105.171 198.9 97.221C203.689 94.2966 210.975 92.1736 213.539 86.666C217.012 79.207 210.748 73.1599 208.452 65.7986C204.331 53.3593 205.312 39.4067 211.006 27.8443C218.901 11.8124 232.299 2.83841 249.642 0.16983C249.793 0.11322 249.945 0.05661 250.097 0Z"/><path fill="#D79041" d="M226.072 375.44C228.932 377.294 232.152 388.767 233.602 390.379C235.631 390.513 237.84 390.142 239.877 389.967C244.172 389.599 248.497 389.631 252.715 388.717C253.596 388.526 254.328 389.673 255.558 389.291C256.113 388.297 255.505 386.543 256.087 385.152C257.553 384.944 257.615 386.12 259.761 385.761L260.083 386.045L260.555 385.595L260.837 386.066L261.066 385.581C269.77 385.031 281.125 386.436 290.055 386.643C291.99 386.688 302.812 387.124 304.311 387.464L304.902 388.799C305.221 386.941 304.838 384.798 304.999 382.977C305.437 378.012 304.516 369.797 305.47 365.111C305.526 372.439 305.528 379.767 305.476 387.095C305.466 390.766 305.632 396.934 305.257 400.442C302.532 400.545 298.179 400.313 295.343 400.229L277.228 399.742C262.98 399.482 249.36 399.749 235.214 399.694C234.89 398.826 234.482 396.985 234.282 396.041C232.689 388.508 229.652 382.182 226.072 375.44Z"/><path fill="#FEE97C" fill-opacity="0.93333334" d="M341.244 143.284L341.769 143.231L341.539 203.938L341.614 218.711C341.631 221.102 341.546 225.294 341.96 227.555C342.59 230.998 345.37 235.974 347.711 238.569C348.09 238.99 354.657 242.563 355.405 242.732C360.697 243.927 366.168 243.665 371.533 243.348C373.238 243.255 375.085 243.698 376.722 243.365C377.829 241.518 376.772 229.614 377.19 226.018L377.373 224.371C377.402 229.419 377.72 239.562 377.175 244.014C370.67 244.046 359.309 244.78 353.613 242.573C348.646 240.693 344.684 236.833 342.674 231.916C342.082 230.442 342.079 229.228 341.385 227.684L341.045 227.945C340.762 226.918 341.173 207.576 341.18 205.328L341.219 162.413C341.231 156.534 340.995 148.97 341.244 143.284Z"/></svg>